<?xml version="1.0" standalone="no"?><!DOCTYPE svg PUBLIC "-//W3C//DTD SVG 1.1//EN" "http://www.w3.org/Graphics/SVG/1.1/DTD/svg11.dtd"><svg t="1653683819706" class="icon" viewBox="0 0 1024 1024" version="1.1" xmlns="http://www.w3.org/2000/svg" p-id="10432" xmlns:xlink="http://www.w3.org/1999/xlink" width="200" height="200"><defs><style type="text/css">@font-face { font-family: feedback-iconfont; src: url("//at.alicdn.com/t/font_1031158_u69w8yhxdu.woff2?t=1630033759944") format("woff2"), url("//at.alicdn.com/t/font_1031158_u69w8yhxdu.woff?t=1630033759944") format("woff"), url("//at.alicdn.com/t/font_1031158_u69w8yhxdu.ttf?t=1630033759944") format("truetype"); }
</style></defs><path d="M704 138.666667c135.488 0 245.333333 109.845333 245.333333 245.333333v32h-42.666666v64h38.442666v64H906.666667v149.333333h21.333333V789.333333a96 96 0 0 1-96 96H192A96 96 0 0 1 96 789.333333v-96h21.333333v-149.333333H85.333333v-64h32v-64h-42.666666V384C74.666667 248.512 184.512 138.666667 320 138.666667h384z m160 618.666666h-704V789.333333A32 32 0 0 0 192 821.333333h640a32 32 0 0 0 32-32v-32z m-682.666667-64h661.333334v-149.333333h-170.666667V576a96 96 0 1 1-192 0v-32h-42.666667v10.666667a96 96 0 1 1-192 0v-10.666667h-64v149.333333z m661.333334-277.333333h-661.333334v64h128V554.666667a32 32 0 0 0 64 0v-74.666667h170.666667V576a32 32 0 0 0 64 0v-96h234.666667v-64zM704 202.666667H320a181.397333 181.397333 0 0 0-178.517333 149.333333h741.034666A181.397333 181.397333 0 0 0 704 202.666667zM522.666667 277.333333a32 32 0 1 1 0 64 32 32 0 0 1 0-64z m-256 0a32 32 0 1 1 0 64 32 32 0 0 1 0-64z m512 0a32 32 0 1 1 0 64 32 32 0 0 1 0-64z m-384-64a32 32 0 1 1 0 64 32 32 0 0 1 0-64z m256 0a32 32 0 1 1 0 64 32 32 0 0 1 0-64z" p-id="10433" fill="#000000"></path></svg>