<?xml version="1.0" standalone="no"?><!DOCTYPE svg PUBLIC "-//W3C//DTD SVG 1.1//EN" "http://www.w3.org/Graphics/SVG/1.1/DTD/svg11.dtd"><svg t="1653684054672" class="icon" viewBox="0 0 1024 1024" version="1.1" xmlns="http://www.w3.org/2000/svg" p-id="28856" xmlns:xlink="http://www.w3.org/1999/xlink" width="200" height="200"><defs><style type="text/css">@font-face { font-family: feedback-iconfont; src: url("//at.alicdn.com/t/font_1031158_u69w8yhxdu.woff2?t=1630033759944") format("woff2"), url("//at.alicdn.com/t/font_1031158_u69w8yhxdu.woff?t=1630033759944") format("woff"), url("//at.alicdn.com/t/font_1031158_u69w8yhxdu.ttf?t=1630033759944") format("truetype"); }
</style></defs><path d="M930 581h-50.1c5.6-15.7 6.7-32.8 2.9-49.5-11.1-49.4-30.5-94.3-57.7-133.5-0.6-0.8-1.1-1.5-1.7-2.3-1.1-2.6-2.5-5.1-4.3-7.5-7.3-9.3-3.1-21.1 13.3-51.8 3.1-5.9 6.4-11.9 9.4-18.2 6.1-12.3 7.6-25.7 4.9-38.4l25.1-25c10.1 8.3 22.8 13 36.3 13.1h0.2c15.3 0 29.7-5.9 40.5-16.7 10.9-10.8 16.9-25.2 17-40.6 0-15.1-5.7-29.4-16.3-40.3-7.5-7.7-16.7-13-26.8-15.6-2.5-10.1-7.8-19.4-15.4-26.9-10.8-10.6-25-16.5-40.2-16.5h-0.2c-15.3 0-29.7 5.9-40.5 16.7-10.9 10.8-16.9 25.2-17 40.6 0 13.6 4.6 26.5 13 36.6L794.6 233c-9.6-0.9-19.5 0.5-28.9 4.4-37.8 15.9-67.2 28-86.9 35.9-0.5-0.3-1.1-0.6-1.7-0.9-51.7-25-107.3-37.7-165.2-37.7-44.3 0-87.7 7.6-129.1 22.5-39.9 14.4-77 35.3-110.1 62.2-66.4 53.8-113.1 129.1-131.7 212-3.7 16.7-2.6 33.8 2.9 49.5H94c-16.6 0-30 13.4-30 30 0 82.7 67.3 150 150 150h23.4c4.5 12.4 11.7 23.8 21.3 33.3 17 16.8 39.4 26 63.3 26h380c23.9 0 46.3-9.2 63.3-26 9.6-9.5 16.9-20.9 21.3-33.3H810c82.7 0 150-67.3 150-150 0-16.5-13.4-29.9-30-29.9z m-75.1-365.6c3.2-3.2 4.8-7.7 4.3-12.3-0.5-4.5-3-8.6-6.9-11-8.1-5.1-12.8-13.8-12.8-23.3 0-7.3 2.9-14.2 8.1-19.4 5.2-5.2 12.1-8 19.4-8h0.1c14.8 0 27.1 12.1 27.4 27 0.2 8 6.6 14.5 14.6 14.7 14.8 0.4 26.8 12.7 26.8 27.6 0 7.3-2.9 14.2-8.1 19.4-5.2 5.2-12.1 8-19.4 8h-0.1c-9.4 0-18.1-4.8-23.2-12.8-2.4-3.8-6.5-6.4-11-6.9s-9 1.1-12.3 4.3L832.4 252l-7-7.1 29.5-29.5zM205.6 569.7c-3.2-4-5.3-8.7-6.1-13.6h63.7c8.3 0 15-6.7 15-15s-6.7-15-15-15h-58.6c2.5-8.5 5.3-16.8 8.4-25h61.3c8.3 0 15-6.7 15-15s-6.7-15-15-15h-48c4.3-8.6 9.1-16.9 14.1-25h51.8c8.3 0 15-6.7 15-15s-6.7-15-15-15h-30.5c7-8.7 14.4-17.1 22.2-25h42.3c8.3 0 15-6.7 15-15s-6.7-15-15-15h-8.3c54.5-41.8 122.4-66.3 194.2-66.3 30.1 0 59.5 4.1 87.8 12.2-11.2 6.2-22 13.4-31.8 21.6-30.3 25.5-45.7 57.6-45.8 95.4-0.1 38.5 14.8 74.8 41.9 102.2 27.2 27.3 63.4 42.5 101.9 42.6h0.1c16.5 0 29.9-13.4 30-29.9 0.1-16.6-13.3-30-29.9-30.1-22.5-0.1-43.7-8.9-59.5-24.9-15.9-16-24.6-37.2-24.5-59.7 0.1-37.1 26.7-61.2 94.9-85.8 15.7-5.7 52.7-20.8 110.1-44.8-2.4 4.8-5 9.6-7.7 14.6-8.7 16.2-17.7 33-21.8 51.1-5.6 24.9-0.8 47.2 14.3 66.3 0.2 0.3 0.4 0.5 0.6 0.7 0.8 2.1 1.9 4.1 3.2 6 22.8 32.7 39 70.5 48.4 112.3 2 8.9-0.1 18-5.8 25.2-5.7 7.2-14.3 11.3-23.5 11.3H229c-9.1-0.1-17.7-4.2-23.4-11.4zM810 701H659c-8.3 0-15 6.7-15 15s6.7 15 15 15h73c-0.4 16.2-13.7 29.3-30 29.3H322c-16.2 0-29.6-13.1-30-29.3h291c8.3 0 15-6.7 15-15s-6.7-15-15-15H214c-18.4 0-35.4-5.5-49.7-15H220c8.3 0 15-6.7 15-15s-6.7-15-15-15h-83.9c-2.8-4.7-5.1-9.8-6.9-15H894.9c-12.4 34.9-45.8 60-84.9 60z" p-id="28857" fill="#000000"></path><path d="M619.691689 427.915028a15 14.2 42.547 1 0 19.203931-20.922931 15 14.2 42.547 1 0-19.203931 20.922931Z" p-id="28858" fill="#000000"></path><path d="M633.600408 471.920865a15 14.2 42.547 1 0 19.203931-20.92293 15 14.2 42.547 1 0-19.203931 20.92293Z" p-id="28859" fill="#000000"></path><path d="M664.694068 438.032442a15 14.2 42.547 1 0 19.203932-20.922931 15 14.2 42.547 1 0-19.203932 20.922931Z" p-id="28860" fill="#000000"></path></svg>