<?xml version="1.0" standalone="no"?><!DOCTYPE svg PUBLIC "-//W3C//DTD SVG 1.1//EN" "http://www.w3.org/Graphics/SVG/1.1/DTD/svg11.dtd"><svg t="1653683894152" class="icon" viewBox="0 0 1024 1024" version="1.1" xmlns="http://www.w3.org/2000/svg" p-id="14454" xmlns:xlink="http://www.w3.org/1999/xlink" width="200" height="200"><defs><style type="text/css">@font-face { font-family: feedback-iconfont; src: url("//at.alicdn.com/t/font_1031158_u69w8yhxdu.woff2?t=1630033759944") format("woff2"), url("//at.alicdn.com/t/font_1031158_u69w8yhxdu.woff?t=1630033759944") format("woff"), url("//at.alicdn.com/t/font_1031158_u69w8yhxdu.ttf?t=1630033759944") format("truetype"); }
</style></defs><path d="M852 641c-6.3-1.7-12.8 2-14.5 8.3-0.3 1-0.4 2-0.4 2.9-0.1 5.3 3.4 10.1 8.7 11.5 50.2 13.7 53.3 25.3 53.3 25.4 0 4-19.2 22.4-113 38.1-78.6 13.2-183.2 20.4-294.6 20.4-111.4 0-216-7.3-294.6-20.4-93.8-15.7-113-34.1-113-38.1 0-3.5 15.9-19.7 93.5-34.6 5.6-1.1 9.5-5.9 9.6-11.4 0-0.8-0.1-1.6-0.2-2.4-1.2-6.4-7.4-10.6-13.8-9.4-101 19.4-112.7 42.3-112.7 57.8 0 16.8 13.8 41.4 132.7 61.4 79.8 13.4 185.8 20.8 298.5 20.8 112.6 0 218.6-7.4 298.5-20.8 118.9-19.9 132.7-44.6 132.7-61.4 0-19.6-22.5-34.9-70.7-48.1z" fill="#000000" p-id="14455"></path><path d="M198.3 702.2H817.4l-0.6-12.3c-0.6-12.9-2.5-25.6-5.7-37.8-10.5-40-34.3-75.4-67.4-98.9-12.9-9.2-26.9-16.4-41.6-21.7l0.4-235.5v-0.2h127.6c5.6 0 10.2 4.5 10.2 10.1s-4.6 10.1-10.2 10.1h-90.8c-6.5 0-11.8 5.3-11.8 11.8 0 6.5 5.3 11.8 11.8 11.8h90.8c18.6 0 33.7-15.1 33.7-33.7s-15.1-33.7-33.7-33.7H702.6l0.1-37.3c0.1-25.8-13.4-49.2-33.5-58.2-11-4.9-22.4-7.6-34-8.2-19.5-0.9-38.5 4.4-56.4 15.8-16.8 10.7-27.2 31.6-27.2 54.5v14.3h-0.3c-1.9-0.2-3.8-0.3-5.7-0.3h-45.3c-6.5 0-11.8 5.3-11.8 11.8 0 6.5 5.3 11.8 11.8 11.8h45.3c1.9 0 3.8 0.2 5.7 0.6 0.1 0 0.2 0.1 0.3 0.1v14.5h-85c-6.5 0-11.8 5.3-11.8 11.8 0 6.5 5.3 11.8 11.8 11.8h84.9v14.6c-0.1 0-0.2 0.1-0.3 0.1-1.8 0.3-3.6 0.5-5.5 0.5h-45.4c-6.5 0-11.8 5.3-11.8 11.8 0 6.5 5.3 11.8 11.8 11.8h45.4c1.8 0 3.6-0.1 5.4-0.3h0.3v0.2l-0.3 113.2c-38.6-18.5-82-24.5-125-16.9-33.8 6-65 19.9-91.4 40.4-65.2 25.2-115.2 82.7-131 153.2-3.4 15-5.2 30.7-5.3 46.7l-0.1 11.7z m435.8-510.1c1.5 0.1 3 0.2 4.5 0.4-0.9 1.6-1.4 3.5-1.4 5.5V521.2c-3.5 0.1-7.1 0.3-10.6 0.7l-4.9 0.5c-1.2-1.5-2.4-2.9-3.7-4.4V193.3c5.4-1 10.8-1.5 16.1-1.2z m158.1 486.5h-54.6c-1.4-9.5-3.9-18.8-7.4-27.7-10.2-25.9-28.8-47.8-52.7-61.1-7.1-3.9-14.5-7.1-22.1-9.5-3.3-8.8-7.3-17.3-11.7-25.5-0.5-3.4-1-6.8-1.6-10.1h1c12 0 23.8 1.4 35.4 4.2 7.3 1.7 14.4 4 21.3 6.9 10.6 4.3 20.8 9.9 30.3 16.6 26.9 19.1 46.7 47.3 56.5 79.4 2.6 8.6 4.5 17.6 5.6 26.8z m-78.7-1.3h-45.2c0.9-9.1 1.3-18.2 1-27.3-0.4-13.8-2.1-27.4-5.1-40.6 0.6 0.3 1.2 0.7 1.8 1 16.3 9.1 29.6 23.2 38.2 40.1 4.3 8.4 7.5 17.4 9.3 26.8z m-195.4-29.5c8.2 8.9 15.1 19.2 20.2 30.6H346c0.3-0.8 0.7-1.5 1.1-2.3 0.3-0.7 0.7-1.4 1-2.1 0.5-1 1-2 1.6-3 0.2-0.5 0.5-0.9 0.7-1.4 0.7-1.3 1.4-2.6 2.2-3.8 0.1-0.2 0.2-0.3 0.3-0.5 4.3-7.1 9.2-13.6 14.8-19.4 16.9-17.9 39.1-29.8 63-32.5 19.5-2.2 38.7 1.8 55.9 10.4 11.7 5.9 22.4 14.1 31.5 24z m10.9-22.6c-10-9.5-21.4-17.3-33.6-23.3-20.8-10.2-44.2-14.8-67.8-12.2-36.1 4-68.9 24.9-90.3 55.5-7.1 10.1-12.9 21.2-17.2 33.1h-49.8c-0.7-11.2 36.2-72.9 58.8-88.7 20-13.9 42.5-24.2 67.3-26.9 27.4-3.1 54.1 2.3 77.5 14.1 21.9 11.1 41 27.8 55.1 48.4z m149.5-100.5c-5.8-1.2-11.7-2.1-17.7-2.7V198.9c10.8 5.6 18.2 20.2 18.2 35.9l-0.5 289.9z m-87-320.5c1-0.6 2-1.3 3-1.8v86.5c-0.1-0.4-0.2-0.8-0.3-1.1v31.1l0.3-1.2v177c-0.8-0.7-1.7-1.4-2.5-2.1-3.6-2.9-7.2-5.6-11-8.3-2.1-1.5-4.2-2.9-6.4-4.3l0.3-135.1 0.1-32.5v-18.2l0.1-32.3 0.1-23.2c0-14.5 6.4-28.1 16.3-34.5zM553 494.5s8.1 5.1 8.6 5.2c2 1.3 3.9 2.6 5.9 4 22.2 15.6 40.3 35.7 53.4 58.6 1.9 5.1 6.7 12.8 6.7 12.8 1.9 4.1 3.7 8.2 5.3 12.4 0.5 1.3 1 2.7 1.5 4 3.4 9.4 5.8 18.8 6.1 20.1 2.8 11.3 3.9 20.6 5.5 34.1 0 0 2.4 20.3-0.8 31.7l-0.2 0.6c-0.1 0.2-0.1 0.4-0.2 0.6h-25.7c0-0.9-0.1-1.9-0.2-2.8-0.5-7.6-1.5-15.2-2.8-22.6 0.3-1.3-0.7-3.9-0.7-3.9-0.4-2.1-0.9-4.2-1.3-6.3-14.6-64.1-57.4-117.4-114.3-145.3-25.8-12.7-54.5-20.2-84.8-21.1 45.3-12 95-6.6 138 17.9z m-271.1 56.8c9.6-9.1 20-17.1 31.3-24 10.5-6.5 21.7-11.9 33.5-16.2 19.5-7.1 40.5-11 62.3-11 20.3 0 39.9 3.4 58.2 9.5 8.7 2.9 17.1 6.5 25.1 10.6 49.3 25.3 86.3 72.3 98.9 128.7 1.2 4.5 2.3 10.3 2.4 17.1 0.1 4.8-0.3 9-0.9 12.5h-16.4c-0.8-4.1-1.7-8.1-2.7-12.1-0.9-6.5-5.7-17.8-5.7-17.8-16-42.1-47.6-75.7-86.5-94.3-26.6-12.7-56.7-18.4-87.7-15-0.3 0-0.5 0.1-0.8 0.1-0.4 0-0.8 0.1-1.2 0.1 0.3-0.1 0.5-0.2 0.8-0.3-13.8 2-34 6.7-55.8 18.3-9 4.7-30.5 17.2-49.6 39.5-9.4 10.9-15.7 21.3-18.3 25.8-4 6.9-7.5 14-10.6 21.5 0 0-3.7 9.5-3.7 9.9-2.7 7.9-4.8 16-6.4 24.3h-25.8c0.8-11.9 2.6-23.5 5.5-34.6 9.1-36 28.2-68 54.1-92.6z" fill="#000000" p-id="14456"></path></svg>