<?xml version="1.0" standalone="no"?><!DOCTYPE svg PUBLIC "-//W3C//DTD SVG 1.1//EN" "http://www.w3.org/Graphics/SVG/1.1/DTD/svg11.dtd"><svg t="1653684035487" class="icon" viewBox="0 0 1134 1024" version="1.1" xmlns="http://www.w3.org/2000/svg" p-id="27595" xmlns:xlink="http://www.w3.org/1999/xlink" width="221.484375" height="200"><defs><style type="text/css">@font-face { font-family: feedback-iconfont; src: url("//at.alicdn.com/t/font_1031158_u69w8yhxdu.woff2?t=1630033759944") format("woff2"), url("//at.alicdn.com/t/font_1031158_u69w8yhxdu.woff?t=1630033759944") format("woff"), url("//at.alicdn.com/t/font_1031158_u69w8yhxdu.ttf?t=1630033759944") format("truetype"); }
</style></defs><path d="M355.365553 413.426237a44.76972 44.824774 60 1 0 77.638786-44.824775 44.76972 44.824774 60 1 0-77.638786 44.824775Z" p-id="27596" fill="#000000"></path><path d="M178.429247 5.967828c53.071828-2.378323 115.723011 1.32129 175.467355 9.964731l13.223914 2.003957c70.226581 11.098839 135.090925 29.013333 173.815742 51.860645a29.98228 29.98228 0 1 1-30.455742 51.651441c-28.154495-16.604215-76.381591-30.631914-130.884817-40.51957l-11.363097-1.981935L356.715355 77.075269l-11.638366-1.739699c-1.948903-0.28628-3.897806-0.550538-5.85772-0.825807l-11.781506-1.541505a1031.201032 1031.201032 0 0 0-17.749333-2.092043l-11.869591-1.211183a980.40843 980.40843 0 0 0-52.873635-3.66658l-7.002838-0.275269 2.477419 4.316215c28.363699 50.418237 45.474409 110.019441 44.18615 159.821075l-0.165161 4.514409a29.98228 29.98228 0 1 1-59.898494-2.92886c2.620559-53.864602-25.919312-129.651613-67.077506-175.478366-16.912516-18.828387-4.327226-48.86572 20.964473-49.988817zM302.013935 851.901935a29.99329 29.99329 0 0 1 29.927226 28.154495l0.055054 1.827785-0.011011 79.090237h89.462366v-14.77643a29.99329 29.99329 0 0 1 28.165505-29.927226L451.44086 916.204731a29.99329 29.99329 0 0 1 29.927226 28.154495l0.055054 1.827785V990.967742a29.99329 29.99329 0 0 1-28.154495 29.927226l-1.827785 0.055054H302.013935a29.99329 29.99329 0 0 1-29.938236-28.154495L272.020645 990.967742v-109.083527a29.98228 29.98228 0 0 1 29.99329-29.98228z" p-id="27597" fill="#000000"></path><path d="M825.960602 853.883871a29.98228 29.98228 0 0 1 32.349592 50.46228l-1.651613 1.068043-1.662624 0.968946 0.011011 84.584602a29.99329 29.99329 0 0 1-28.165506 29.927226l-1.816774 0.055054H675.586753a29.99329 29.99329 0 0 1-29.927226-28.154495L645.604473 990.967742l-0.011011-14.787441H453.378753a29.99329 29.99329 0 0 1-29.927226-28.154495l-0.055054-1.827784a29.99329 29.99329 0 0 1 28.165505-29.927226l1.816775-0.055054h222.208a29.99329 29.99329 0 0 1 29.938236 28.154495l0.055054 1.827785-0.011011 14.77643h89.462366v-71.624947c0-9.865634 4.844731-19.048602 12.88258-24.631053l1.761721-1.134108 16.295914-9.700473zM152.576 379.001118a29.98228 29.98228 0 0 1 1.827785 59.920516l-1.827785 0.055054H63.014538v178.781592h85.223225a29.99329 29.99329 0 0 1 29.938237 28.165505l0.055054 1.827785a29.99329 29.99329 0 0 1-28.165506 29.927226l-1.816774 0.055053h-85.333333a59.854452 59.854452 0 0 1-59.821419-57.421075l-0.044044-2.411355V438.833548a59.854452 59.854452 0 0 1 57.465119-59.788387l2.400344-0.044043h89.660559z" p-id="27598" fill="#000000"></path><path d="M140.882581 618.683183a29.98228 29.98228 0 0 1 36.43458 21.702193c17.330925 68.431828 53.402151 130.697634 104.822366 180.477248a413.894194 413.894194 0 0 0 38.592688 35.069247 29.98228 29.98228 0 1 1-37.44757 46.839742 467.395441 467.395441 0 0 1-43.525505-39.484559A440.077763 440.077763 0 0 1 119.180387 655.117763a29.98228 29.98228 0 0 1 21.691183-36.445591zM574.012559 63.862366l2.576516-0.033033A471.909849 471.909849 0 0 1 910.699355 201.309591a470.643613 470.643613 0 0 1 138.581333 333.328517c0 147.257806-71.23957 279.375828-191.256774 369.851182a29.98228 29.98228 0 1 1-36.104258-47.896774c105.516043-79.541677 167.385462-194.27372 167.385462-321.943398a410.668043 410.668043 0 0 0-120.931096-290.838021A411.94529 411.94529 0 0 0 576.666151 123.815914l-4.426323 0.055054-5.086968 0.176172-8.808602 0.473462-6.595441 0.44043-10.900645 0.836817-12.00172 1.035011a29.98228 29.98228 0 1 1-5.373248-59.733333l13.025721-1.123097 8.037849-0.627613 7.498323-0.528516 6.969806-0.418409 6.419269-0.308301 5.868731-0.187182 2.719656-0.044043zM326.226581 136.203011a29.98228 29.98228 0 1 1 31.953204 50.75957 412.099441 412.099441 0 0 0-173.705634 225.335053 29.98228 29.98228 0 0 1-57.222882-17.947526A472.075011 472.075011 0 0 1 326.226581 136.203011zM1093.995355 438.690409a29.99329 29.99329 0 0 1 29.938236 28.165505l0.055054 1.827785v74.60886a29.98228 29.98228 0 0 1-59.920516 1.827785l-0.055054-1.827785v-74.60886a29.98228 29.98228 0 0 1 29.98228-29.99329z" p-id="27599" fill="#000000"></path><path d="M601.187097 211.714753a29.98228 29.98228 0 0 1 34.496688-24.653076c149.581075 24.906323 266.658409 142.225892 291.10228 291.696861a29.98228 29.98228 0 0 1-59.182796 9.689462c-20.303828-124.113204-117.528774-221.536344-241.774108-242.236559a29.98228 29.98228 0 0 1-24.653075-34.496688z" p-id="27600" fill="#000000"></path></svg>