<?xml version="1.0" standalone="no"?><!DOCTYPE svg PUBLIC "-//W3C//DTD SVG 1.1//EN" "http://www.w3.org/Graphics/SVG/1.1/DTD/svg11.dtd"><svg t="1653683938798" class="icon" viewBox="0 0 1024 1024" version="1.1" xmlns="http://www.w3.org/2000/svg" p-id="19444" xmlns:xlink="http://www.w3.org/1999/xlink" width="200" height="200"><defs><style type="text/css">@font-face { font-family: feedback-iconfont; src: url("//at.alicdn.com/t/font_1031158_u69w8yhxdu.woff2?t=1630033759944") format("woff2"), url("//at.alicdn.com/t/font_1031158_u69w8yhxdu.woff?t=1630033759944") format("woff"), url("//at.alicdn.com/t/font_1031158_u69w8yhxdu.ttf?t=1630033759944") format("truetype"); }
</style></defs><path d="M298.455893 932.223006c-2.16796 0-5.058574 0-7.949189-0.722653l-33.964714-7.949189c-10.839802-2.16796-18.788991-11.562456-20.234298-23.124911l-60.702893-557.165844c-1.445307-14.45307 8.671842-27.460833 23.124912-28.906139l79.491884-9.394496c10.117149-1.445307 20.234298 3.613267 26.015526 13.007763 67.206775 117.069866 182.831334 117.792519 203.788285 117.069866h7.949188c18.066337 0.722653 136.58151 2.16796 204.510939-116.347212 5.058574-9.394495 15.175723-14.45307 26.015526-13.007763l79.491884 9.394495c14.45307 1.445307 24.570219 14.45307 23.124912 28.90614l-60.702894 557.165843c-1.445307 10.839802-9.394495 20.234298-20.234298 23.124912l-33.964714 7.949188c-9.394495 2.16796-13.007763 0-23.847565-6.503881-5.781228-3.613267-49.863091-30.351447-197.284404-30.351447s-191.503176 26.738179-197.284403 30.351447c-9.394495 3.613267-10.839802 6.503881-17.343684 6.503881z m410.467184-7.949188z m-393.846154 0z m196.56175-81.659845c137.304164 0 196.56175 21.679605 220.409316 35.410021l5.058574-1.445307 55.644319-513.08398-36.855328-4.335921C671.345095 491.404375 532.595625 488.513761 511.638673 487.791108c-20.234298 0.722653-158.983769 3.613267-244.25688-128.632322l-36.855329 4.335921 55.644319 513.08398 5.058575 1.445307c23.847565-13.730416 83.827805-35.410021 220.409315-35.410021z m262.323218-679.294284H692.302047l-5.781228-48.417784c-1.445307-14.45307-14.45307-24.570219-28.90614-23.124911l-86.718419 10.117149c-7.226535 0.722653-13.007763 4.335921-17.343684 10.117148-4.335921 5.781228-6.503881 12.285109-5.781228 19.511645l4.335921 38.300635c-5.781228-0.722653-11.562456 0.722653-16.62103 3.613267-5.781228 3.613267-10.117149 9.394495-12.28511 15.898377L513.08398 231.249118c-4.335921-7.226535-13.007763-13.007763-22.402258-13.007763h-19.511644l14.453069-40.468596c2.16796-6.503881 2.16796-13.730416-1.445306-20.234297-2.890614-6.503881-8.671842-10.839802-15.175724-13.007763l-75.878617-26.015526c-13.730416-5.058574-28.90614 2.16796-33.24206 15.898377L343.260409 180.663373c-3.613267-10.117149-13.007763-16.62103-24.570218-16.62103h-86.71842c-14.45307 0-26.015526 11.562456-26.015525 26.015526v123.573747l52.753705-5.781228V216.073394h33.964714v91.776994c4.335921 2.16796 8.671842 5.781228 11.562456 10.839803 12.285109 21.679605 26.738179 39.023289 41.191249 53.476358v-36.132675l55.644319-159.706422 26.015526 9.394496-68.652082 198.007057c26.015526 21.679605 52.753705 33.964714 77.323923 41.191249V322.303458l17.343684-50.585745h11.562456v145.253353l-3.613267 14.453069c23.124912 4.335921 40.468596 4.335921 46.972477 3.613268H516.697248v-11.562456l45.52717-171.991531L572.341567 339.647142l-24.570219 93.944954c22.402258-2.890614 53.476359-9.394495 85.273112-27.460833l-4.335921-36.132674-25.292872-218.964009 33.964714-3.613267L662.673253 368.553282v18.066337c18.788991-15.175723 36.855328-34.687368 52.753705-59.98024V216.073394h31.796754v89.609034l52.753705 5.781228V190.057869c0-14.45307-11.562456-26.738179-26.015526-26.73818z m-261.600564 627.263233c-71.542696 0-129.354975-57.812279-129.354976-129.354976 0-71.542696 57.812279-129.354975 129.354976-129.354975 71.542696 0 129.354975 57.812279 129.354975 129.354975 0 70.820042-58.534933 129.354975-129.354975 129.354976z m0-206.678899c-42.636556 0-77.323924 34.687368-77.323924 77.323923 0 42.636556 34.687368 77.323924 77.323924 77.323924 42.636556 0 77.323924-34.687368 77.323924-77.323924-0.722653-42.636556-35.410021-77.323924-77.323924-77.323923z" p-id="19445" fill="#000000"></path></svg>