<?xml version="1.0" standalone="no"?><!DOCTYPE svg PUBLIC "-//W3C//DTD SVG 1.1//EN" "http://www.w3.org/Graphics/SVG/1.1/DTD/svg11.dtd"><svg t="1653683856877" class="icon" viewBox="0 0 1024 1024" version="1.1" xmlns="http://www.w3.org/2000/svg" p-id="12608" xmlns:xlink="http://www.w3.org/1999/xlink" width="200" height="200"><defs><style type="text/css">@font-face { font-family: feedback-iconfont; src: url("//at.alicdn.com/t/font_1031158_u69w8yhxdu.woff2?t=1630033759944") format("woff2"), url("//at.alicdn.com/t/font_1031158_u69w8yhxdu.woff?t=1630033759944") format("woff"), url("//at.alicdn.com/t/font_1031158_u69w8yhxdu.ttf?t=1630033759944") format("truetype"); }
</style></defs><path d="M282 292.02m-25 0a25 25 0 1 0 50 0 25 25 0 1 0-50 0Z" fill="#000000" p-id="12609"></path><path d="M273.89 374.89m-25 0a25 25 0 1 0 50 0 25 25 0 1 0-50 0Z" fill="#000000" p-id="12610"></path><path d="M682.38 930H351.51a72 72 0 0 1 0-144h330.87a72 72 0 1 1 0 144z m-330.87-94a22 22 0 0 0 0 44h330.87a22 22 0 1 0 0-44zM797.94 742.88H560.45a25 25 0 0 1 0-50h237.49a25 25 0 0 1 0 50z" fill="#000000" p-id="12611"></path><path d="M611.09 836H430.37a25.39 25.39 0 0 1-5-0.5 444.16 444.16 0 0 1-133.56-50.29A412.33 412.33 0 0 1 184.92 697c-63.1-73.32-96.46-164.7-96.46-264.25a25 25 0 0 1 25-25H928a25 25 0 0 1 25 25c0 99.55-33.36 190.93-96.47 264.26a412.32 412.32 0 0 1-106.89 88.19 444.06 444.06 0 0 1-133.56 50.3 25.29 25.29 0 0 1-4.99 0.5z m-178.16-50h175.6a394.08 394.08 0 0 0 116.13-44.1 362.54 362.54 0 0 0 94-77.5c49.89-58 78.52-129 83.56-206.64H139.27c5 77.67 33.67 148.68 83.55 206.64a362.59 362.59 0 0 0 94 77.5A394 394 0 0 0 432.93 786z" fill="#000000" p-id="12612"></path><path d="M359.75 457.76H248.08a25 25 0 0 1-14.74-4.8 119.11 119.11 0 0 1-31.41-34C197 410.89 182 386.48 166.8 267c-7.25-57-11.06-107.68-11.22-109.81A25 25 0 0 1 193.43 134c1.83 1.1 45.29 27.4 92.89 59.65 99.67 67.53 114.67 91.95 119.6 100A119.71 119.71 0 0 1 374.47 453a25 25 0 0 1-14.72 4.76z m-102.82-50h94a69.74 69.74 0 0 0 12.4-88c-4.3-7-23.14-29.26-105-84.76-17.18-11.64-34-22.6-48.36-31.79 1.71 17 3.89 37.06 6.52 57.71 12.48 98 23.81 124.83 28.11 131.81a69.43 69.43 0 0 0 12.33 15.03zM640.48 419.91a24.86 24.86 0 0 1-16.19-6L487.67 297.6a25 25 0 1 1 32.41-38.07L656.7 375.87a25 25 0 0 1-16.22 44z" fill="#000000" p-id="12613"></path><path d="M515.57 457.76a25 25 0 0 1-24.72-21.48l-20-140.74a25 25 0 1 1 49.5-7l20 140.73a25 25 0 0 1-24.78 28.52z" fill="#000000" p-id="12614"></path><path d="M702.75 291.11h-0.93L521 284.47a25 25 0 1 1 1.83-50l180.87 6.63a25 25 0 0 1-0.9 50z" fill="#000000" p-id="12615"></path><path d="M605 457.76H418.67a25 25 0 0 1-12.21-3.19 216 216 0 0 1-47.27-35.81 25 25 0 0 1 0-35.35l270-270a25 25 0 0 1 35.36 0 216 216 0 0 1-47.26 341.11 25 25 0 0 1-12.29 3.24z m-179.58-50h172.83a166 166 0 0 0 47.26-240l-232 232q5.81 4.24 11.93 8zM248.08 457.76h-60.69a25 25 0 0 1-25-23.95c-0.15-3.57-0.22-6.81-0.22-9.9a229.27 229.27 0 0 1 18.83-91.3 25 25 0 0 1 47.48 5c7.62 38.49 13.8 51.35 16.1 55.09a69.18 69.18 0 0 0 18.27 19.82 25 25 0 0 1-14.73 45.2z" fill="#000000" p-id="12616"></path><path d="M860.29 457.76H359.75A25 25 0 0 1 345 412.55a69.71 69.71 0 0 0 18.28-92.78c-3.34-5.43-17.07-22.35-72.31-62a25 25 0 0 1 4.03-42.91 228.61 228.61 0 0 1 39.28-14.27 105.15 105.15 0 0 1 129.7-75A111.76 111.76 0 0 1 635.69 122a215.81 215.81 0 0 1 245.45 324.55 25 25 0 0 1-20.85 11.21z m-448.29-50h434.22a165 165 0 0 0 20.59-80.06c0-91.4-74.36-165.76-165.76-165.76a164.6 164.6 0 0 0-64.75 13.12 25 25 0 0 1-31.44-10.55 61.74 61.74 0 0 0-108.7 3A25 25 0 0 1 462 178.29a54.39 54.39 0 0 0-26-6.5 55.29 55.29 0 0 0-55 51.26 25 25 0 0 1-20.48 22.87l-1.82 0.34c31.3 25.13 41.94 38.74 47.22 47.33A119.86 119.86 0 0 1 412 407.76z" fill="#000000" p-id="12617"></path></svg>