<?xml version="1.0" standalone="no"?><!DOCTYPE svg PUBLIC "-//W3C//DTD SVG 1.1//EN" "http://www.w3.org/Graphics/SVG/1.1/DTD/svg11.dtd"><svg t="1657046315524" class="icon" viewBox="0 0 1024 1024" version="1.1" xmlns="http://www.w3.org/2000/svg" p-id="1765" xmlns:xlink="http://www.w3.org/1999/xlink" width="200" height="200"><defs><style type="text/css">@font-face { font-family: feedback-iconfont; src: url("//at.alicdn.com/t/font_1031158_u69w8yhxdu.woff2?t=1630033759944") format("woff2"), url("//at.alicdn.com/t/font_1031158_u69w8yhxdu.woff?t=1630033759944") format("woff"), url("//at.alicdn.com/t/font_1031158_u69w8yhxdu.ttf?t=1630033759944") format("truetype"); }
</style></defs><path d="M298.666667 385.073333a53.546667 53.546667 0 0 0-10.666667-1.073333H96a53.393333 53.393333 0 0 0-53.333333 53.333333v490.666667a53.393333 53.393333 0 0 0 53.333333 53.333333h192a53.06 53.06 0 0 0 10.666667-1.086666zM192 853.333333a21.333333 21.333333 0 1 1 21.333333-21.333333 21.333333 21.333333 0 0 1-21.333333 21.333333z m820.313333-370.42l-65.546666 426.06A85.333333 85.333333 0 0 1 862.426667 981.333333H448a148.353333 148.353333 0 0 1-105.593333-43.74c-0.366667-0.36-0.72-0.733333-1.073334-1.1V413.066667c25.106667-39.806667 57.126667-74.106667 84.12-103.006667l6-6.446667C500 230.053333 505.433333 169.706667 505.433333 98.46c0-25.746667 12.04-39.333333 22.14-46.186667C539.26 44.333333 552.326667 42.666667 561.233333 42.666667c20.993333 0 52.946667 9.473333 79.66 36.066666 20.553333 20.453333 45.053333 58.42 45.053334 123.113334 0 29.566667-7.18 62.666667-13.206667 85.2-7.8 29.213333-18.56 59.253333-30.28 84.573333a10.666667 10.666667 0 0 0 0.666667 10.373333 10.28 10.28 0 0 0 8.873333 4.833334h0.1l275.153333-2.22h0.666667a85.333333 85.333333 0 0 1 84.333333 98.306666z" fill="#FFE89D" p-id="1766"></path></svg>