<?xml version="1.0" standalone="no"?><!DOCTYPE svg PUBLIC "-//W3C//DTD SVG 1.1//EN" "http://www.w3.org/Graphics/SVG/1.1/DTD/svg11.dtd"><svg t="1653683911969" class="icon" viewBox="0 0 1024 1024" version="1.1" xmlns="http://www.w3.org/2000/svg" p-id="17124" xmlns:xlink="http://www.w3.org/1999/xlink" width="200" height="200"><defs><style type="text/css">@font-face { font-family: feedback-iconfont; src: url("//at.alicdn.com/t/font_1031158_u69w8yhxdu.woff2?t=1630033759944") format("woff2"), url("//at.alicdn.com/t/font_1031158_u69w8yhxdu.woff?t=1630033759944") format("woff"), url("//at.alicdn.com/t/font_1031158_u69w8yhxdu.ttf?t=1630033759944") format("truetype"); }
</style></defs><path d="M960.8 577.4c-2-3-4.4-5.5-7.1-7.5 11.4-42.1 4.8-88.8-22.2-127.3-19.3-27.5-46.4-47.5-77.8-57.6-5-38.9-24.8-75.9-58.2-101.6-30.1-23.1-67.5-34.2-105.3-31.1-0.2 0-0.5 0.1-0.7 0.1-23.9-27.5-57.6-46.7-96.5-51.5-37.2-4.6-74 4.4-104.6 25.4-28.8-11.6-60.5-14-91.4-6.7-39.5 9.3-73 33.3-94.5 67.7-34-1.5-67.3 8.4-95.4 28.6-25.1 18.1-44.2 43.5-54.6 72.5-35.4 12.2-64.8 36.7-83.2 69.8-19.4 34.6-24.4 74.7-14.3 113.1-17.1 23.2-27.9 51.5-29.6 82.3-1.8 34 8 68 27.6 95.8 3.5 5.5 16.7 24.8 41.3 42.4 19.9 14.3 50.6 29.6 92.2 31.9 11.5 0.6 23.8 0.2 36.9-1.5 3-0.4 5.9-1.2 8.6-2.4 2-0.4 3.9-1.1 5.8-1.9 68.7-31 168.2-48.9 273.1-49.1h1.9c90.8 0 166.5 13.5 236.5 42.4 2.1 1.5 4.5 2.8 7 3.7 2.7 1 5.4 1.9 8 2.7 2.7 1.2 5.4 1.9 8.2 2.3 9.8 2.4 19.3 3.8 28.5 4.2 44.8 2.4 80.4-15.2 90.3-20.6 47.8-19.4 82.2-61 92.2-111.6 8-40-0.1-80.7-22.7-114.5z m-39 113.9c-8.6 26.1-28.3 47-54.3 57.1-1.7 0.6-3.2 1.4-4.8 2.4-0.4 0.2-36.8 21.4-77.8 10.3-81.1-35.7-167.7-52.3-272.1-52.3h-2c-112.9 0.2-221.2 20-297.3 54.3-74.2 8.5-107.4-41.8-109.7-45.5-0.5-0.9-0.8-1.3-1.4-2.1-9.2-12.8-14.8-27.3-16.6-42.7-0.5-5.1-0.6-10.3-0.3-15.5 0.4-7.9 1.7-15.5 3.8-22.8 4.6-15 12.9-28.3 23.8-38.9-0.1-0.6-0.3-1.5-0.5-2.6 20.2-22 49.6-35.1 81.6-33.4 16.9 0.9 33 5.8 47.3 14.3 1.8-10.2 4.5-20.1 8.1-29.8-16.6-8.5-34.8-13.5-53.8-14.5-32.2-1.7-62.3 8.2-86.4 26-0.1-8.9 0.1-19.1 0.9-30.7 0.6-9.6 2.7-17.9 5.6-25 1.6-4.3 3.6-8.5 5.8-12.6 9.2-16.6 22.8-29.1 38.6-37.2 6.1-3 12.6-5.5 19.2-7.3 9-2.3 18.3-3.3 27.6-2.8v-0.8c16.8 0.1 33.9 4.3 49.6 13.1 12.9 7.2 23.9 16.9 32.6 28.5 6.7-7.3 14.1-14.2 22-20.7-10.8-13.8-24.2-25.3-39.9-34-19-10.6-39.6-16.1-60-16.8 2.7-10.7 6.9-20.3 12.9-28 1.4-1.7 2.8-3.3 4.2-4.8 4.1-4.4 8.7-8.4 13.7-12 29.5-21.2 67.2-22.5 97.3-6.6 0-0.1 0-0.3 0.1-0.4 14.4 7.2 27.3 17.9 37.3 31.9 5.7 8 10.3 16.6 13.5 25.6 9.2-3.5 18.8-6.6 28.6-9.2-4.2-12-10.1-23.4-17.7-33.9-13.9-19.4-32.1-33.9-52.4-43.2 3.9-7.9 9.2-16.4 16.5-25.1 1.3-1.5 2.7-2.8 4.1-4 10.5-9.7 23.2-16.8 37.3-20.7 26.5-5.9 53.7-1.3 76.7 13 3.4 2.1 6.6 4.3 9.6 6.8 1.5 1.3 2.9 2.7 4.3 4.1 0.1-0.1 0.1-0.2 0.2-0.3 15.9 14 27.1 32.6 32 53.7 3 12.8 3.6 25.7 1.7 38.3 10.1 0.6 20.1 1.6 29.9 2.9 2.1-15.9 1.3-32.1-2.4-48.1-6.4-27.3-20.9-51.3-41.5-69.4 7.3-5.9 16.1-11.1 26.8-15.2 3.8-1.4 7.5-2.4 11-3 9.9-2.1 20.1-2.5 30.4-1.3 10.9 1.3 21.2 4.6 30.5 9.3 12.4 6.7 23.3 15.9 32.2 27.3 1 1.3 1.9 2.6 2.9 3.9 2.6 3.9 5 8.1 7 12.4 0.2 0 0.3-0.1 0.5-0.1 9.5 18.3 13.3 39.1 10.7 60-2.2 17.9-8.9 34.5-19.4 48.7 9.4 4.1 18.5 8.5 27.3 13.4 11.8-17.3 19.2-37.2 21.9-58.4 2.8-23.1-0.3-46.1-9-67 9.7 0.1 20.3 1.3 31.7 3.9 2.7 0.6 5.3 1.3 7.9 2.1 8.1 2.4 13.6 4.9 17.3 7.4 4.1 2.2 8 4.8 11.7 7.7 19.6 15.1 32.1 36.8 35.3 61.3 2.4 18.3-0.6 36.4-8.6 52.6 0.5-0.2 1.1-0.4 1.6-0.6-3 6.2-6.7 12.1-11 17.7-8.4 10.9-18.6 19.8-30.2 26.5 6.9 7.6 13.3 15.5 18.9 23.6 13.4-8.3 25.2-19 35.1-31.9 9.4-12.2 16.5-25.8 21.2-40 8.7 0.8 17.9 3.2 27.5 7.4 7.3 3.2 13 7.1 17.4 11.5 6.1 5.1 11.6 11.1 16.3 17.8 21.2 30.3 21.6 68.9 4.4 99.1 0.3 0.2 0.7 0.4 1 0.6-6.3 8-13.7 15.1-22.3 21.1-18.6 13-40.4 19.5-63 18.6-1.3-0.1-2.6 0.1-3.9 0.4 0 2.4-0.1 4.8-0.2 7.2-0.4 7.2-1.2 14.2-2.5 21.1 1.6 0.7 3.4 1.1 5.2 1.2h0.2c29.2 1.1 57.4-7.2 81.4-24 9.6-6.8 18.2-14.6 25.6-23.4 4.7 8.2 9 18.6 12.8 31.8 3.6 9.9 5.4 20.3 5.5 30.8 0.7 12.4-1.1 22.1-4.6 29.9z" p-id="17125" fill="#000000"></path><path d="M210.7 665.9h-0.6c-8.3-0.3-14.7-7.3-14.4-15.6 3.2-75.3 37.5-145.5 96.8-197.8 59-52.1 136.6-80.8 218.5-80.8 81.8 0 159.3 28.6 218.3 80.6 59.2 52.2 93.6 122.3 96.9 197.5 0.4 8.3-6 15.3-14.3 15.6-8.2 0.4-15.3-6-15.6-14.3-6.2-139.9-131.5-249.4-285.3-249.4-154.1 0-279.4 109.8-285.3 249.9-0.3 8-7 14.3-15 14.3z" p-id="17126" fill="#000000"></path><path d="M183.4 794c-5.2 0-10.2-2.7-13-7.5-4.1-7.2-1.7-16.3 5.5-20.5l173.2-100c7.2-4.1 16.3-1.7 20.5 5.5s1.7 16.3-5.5 20.5L190.9 792c-2.4 1.4-4.9 2-7.5 2zM312.4 776c-5.2 0-10.2-2.7-13-7.5-4.1-7.2-1.7-16.3 5.5-20.5l173.2-100c7.2-4.1 16.3-1.7 20.5 5.5 4.1 7.2 1.7 16.3-5.5 20.5L319.9 774c-2.4 1.4-4.9 2-7.5 2zM448.5 757.5c-5.2 0-10.2-2.7-13-7.5-4.1-7.2-1.7-16.3 5.5-20.5L589.1 644c7.2-4.1 16.3-1.7 20.5 5.5s1.7 16.3-5.5 20.5L456 755.5c-2.4 1.4-5 2-7.5 2zM577.8 754.8c-5.2 0-10.2-2.7-13-7.5-4.1-7.2-1.7-16.3 5.5-20.5L679.1 664c7.2-4.1 16.3-1.7 20.5 5.5 4.1 7.2 1.7 16.3-5.5 20.5l-108.8 62.8c-2.4 1.4-5 2-7.5 2zM670.4 774.7c-5.2 0-10.2-2.7-13-7.5-4.1-7.2-1.7-16.3 5.5-20.5l91.3-52.7c7.2-4.1 16.3-1.7 20.5 5.5s1.7 16.3-5.5 20.5l-91.3 52.7c-2.4 1.3-5 2-7.5 2zM752.1 800.8c-5.2 0-10.2-2.7-13-7.5-4.1-7.2-1.7-16.3 5.5-20.5l84.5-48.8c7.2-4.1 16.3-1.7 20.5 5.5 4.1 7.2 1.7 16.3-5.5 20.5l-84.5 48.8c-2.3 1.3-4.9 2-7.5 2z" p-id="17127" fill="#000000"></path></svg>