<?xml version="1.0" standalone="no"?><!DOCTYPE svg PUBLIC "-//W3C//DTD SVG 1.1//EN" "http://www.w3.org/Graphics/SVG/1.1/DTD/svg11.dtd"><svg t="1653683844178" class="icon" viewBox="0 0 1024 1024" version="1.1" xmlns="http://www.w3.org/2000/svg" p-id="11593" xmlns:xlink="http://www.w3.org/1999/xlink" width="200" height="200"><defs><style type="text/css">@font-face { font-family: feedback-iconfont; src: url("//at.alicdn.com/t/font_1031158_u69w8yhxdu.woff2?t=1630033759944") format("woff2"), url("//at.alicdn.com/t/font_1031158_u69w8yhxdu.woff?t=1630033759944") format("woff"), url("//at.alicdn.com/t/font_1031158_u69w8yhxdu.ttf?t=1630033759944") format("truetype"); }
</style></defs><path d="M344.514832 320.141784c25.064678 0 45.370941 20.306262 45.370941 45.370941 0 25.064678-20.306262 45.370941-45.370941 45.370941-25.064678 0-45.370941-20.306262-45.370941-45.370941C299.143892 340.503377 319.450154 320.141784 344.514832 320.141784zM346.340736 490.836116c61.029448 0 110.49484 49.465391 110.49484 110.49484s-49.465391 110.49484-110.49484 110.49484-110.49484-49.465391-110.49484-110.49484S285.311288 490.836116 346.340736 490.836116zM642.967094 549.873669c27.609877 0 49.963365 22.353488 49.963365 49.963365 0 27.609877-22.353488 49.963365-49.963365 49.963365-27.609877 0-49.963365-22.353488-49.963365-49.963365C593.003728 572.227157 615.357216 549.873669 642.967094 549.873669zM987.952234 690.634247l0.940617-0.331982c-49.520722-147.676879-132.958988-286.611552-250.480791-404.244016C623.656779 171.413627 488.816556 89.690604 345.178797 39.616578 333.55941 34.138866 320.722754 30.874372 307.111471 30.874372c-49.797374 0-90.188577 40.280542-90.188577 90.133247 0 40.280542 26.66926 74.032096 63.132004 85.596153L31.28935 993.125628l785.525909-248.378235c11.398066 36.739396 45.26028 63.574647 85.706814 63.574647 49.742044 0 90.077916-40.391203 90.077916-90.133247C992.65532 708.505971 990.774085 699.376452 987.952234 690.634247zM608.938888 762.508456c-3.043173-3.541147-6.031015-7.248284-9.35084-10.568109-55.828389-55.828389-146.293619-55.828389-202.177338 0-25.230669 25.286-39.007943 57.543632-41.442481 90.465229l-254.575242 80.561085L320.22478 230.893824c106.732372 35.798779 207.101745 95.998271 292.144594 181.04112 85.098179 84.987518 145.297671 185.412222 180.985789 292.144594C793.410493 704.079537 608.938888 762.508456 608.938888 762.508456z" p-id="11594" fill="#000000"></path></svg>