<?xml version="1.0" standalone="no"?><!DOCTYPE svg PUBLIC "-//W3C//DTD SVG 1.1//EN" "http://www.w3.org/Graphics/SVG/1.1/DTD/svg11.dtd"><svg t="1653683876778" class="icon" viewBox="0 0 1029 1024" version="1.1" xmlns="http://www.w3.org/2000/svg" p-id="13914" xmlns:xlink="http://www.w3.org/1999/xlink" width="200.9765625" height="200"><defs><style type="text/css">@font-face { font-family: feedback-iconfont; src: url("//at.alicdn.com/t/font_1031158_u69w8yhxdu.woff2?t=1630033759944") format("woff2"), url("//at.alicdn.com/t/font_1031158_u69w8yhxdu.woff?t=1630033759944") format("woff"), url("//at.alicdn.com/t/font_1031158_u69w8yhxdu.ttf?t=1630033759944") format("truetype"); }
</style></defs><path d="M300.170456 393.501284m-31.211562 0a31.211562 31.211562 0 1 0 62.423125 0 31.211562 31.211562 0 1 0-62.423125 0Z" p-id="13915" fill="#000000"></path><path d="M454.672835 307.666629m-31.211562 0a31.211562 31.211562 0 1 0 62.423125 0 31.211562 31.211562 0 1 0-62.423125 0Z" p-id="13916" fill="#000000"></path><path d="M719.976832 438.757478m-31.211562 0a31.211562 31.211562 0 1 0 62.423124 0 31.211562 31.211562 0 1 0-62.423124 0Z" p-id="13917" fill="#000000"></path><path d="M570.152184 421.590547m-31.211562 0a31.211562 31.211562 0 1 0 62.423124 0 31.211562 31.211562 0 1 0-62.423124 0Z" p-id="13918" fill="#000000"></path><path d="M414.094374 451.246677m-31.211562 0a31.211562 31.211562 0 1 0 62.423124 0 31.211562 31.211562 0 1 0-62.423124 0Z" p-id="13919" fill="#000000"></path><path d="M621.652977 337.32276m-31.211562 0a31.211562 31.211562 0 1 0 62.423124 0 31.211562 31.211562 0 1 0-62.423124 0Z" p-id="13920" fill="#000000"></path><path d="M1018.047821 142.241919c12.4892-10.968079 15.6115-31.211562 6.2446-45.279067-10.922331-15.600063-29.644694-18.722362-43.700761-7.800031L743.342615 260.1116a428.509929 428.509929 0 0 0-38.554114-24.89834L949.380098 59.529564c15.6115-10.922331 18.733799-31.188688 7.76572-45.256193-10.933768-15.600063-29.656131-18.722362-43.700762-7.800031L637.287351 204.390556A422.665624 422.665624 0 0 0 495.23986 179.698081c-198.477629 0-368.614381 135.494092-414.099314 326.171689H59.833422c-35.90073 0-64.047178 31.211562-59.312261 67.112293 31.211562 254.381665 237.237608 451.017937 486.918668 451.017937s455.707106-196.636272 486.918668-451.017937c4.677731-35.90073-23.411531-67.112293-59.312261-67.112293h-5.718498a423.626332 423.626332 0 0 0-115.39929-203.521344z m-530.607992 817.745214c-212.247772 0-393.272545-166.980142-422.928675-390.150244h845.85735c-29.656131 223.192977-210.680903 390.173119-422.928675 390.173118z m316.804789-463.507137H184.679671c-17.155494 0-29.656131-18.722362-21.844663-34.310988C219.013533 331.07816 348.54895 242.121205 495.23986 242.121205s276.237764 88.956955 332.416289 220.047803c6.2446 15.645811-6.2446 34.333862-23.411531 34.333862z" p-id="13921" fill="#000000"></path></svg>